<?xml version="1.0" standalone="no"?>
<!DOCTYPE svg PUBLIC "-//W3C//DTD SVG 20010904//EN"
 "http://www.w3.org/TR/2001/REC-SVG-20010904/DTD/svg10.dtd">
<svg version="1.0" xmlns="http://www.w3.org/2000/svg"
 width="540.000000pt" height="418.000000pt" viewBox="0 0 540.000000 418.000000"
 preserveAspectRatio="xMidYMid meet">

<g transform="translate(0.000000,418.000000) scale(0.100000,-0.100000)"
fill="#008FAD" stroke="none">
<path d="M2140 3053 c-18 -104 -36 -197 -40 -207 -7 -21 -21 -4 -186 241 -49
73 -92 133 -95 133 -20 0 -87 -93 -489 -688 -288 -425 -439 -657 -433 -663 6
-6 399 -257 874 -559 l864 -549 7 32 c4 18 10 80 14 139 3 60 10 108 13 108 4
0 29 -29 55 -65 26 -35 51 -67 56 -70 5 -3 439 434 964 972 526 538 953 979
948 980 -5 2 -2511 383 -2517 383 0 0 -16 -84 -35 -187z m1230 -59 c602 -91
1097 -167 1098 -169 4 -4 -41 -19 -1162 -375 -434 -137 -790 -249 -791 -248
-1 2 -84 124 -185 272 l-182 268 36 202 c21 110 39 207 41 214 3 7 14 10 27 7
13 -3 516 -80 1118 -171z m-1422 -70 l132 -196 -65 -354 -66 -354 42 -55 c23
-31 39 -58 36 -61 -8 -8 -864 -35 -978 -32 l-85 3 420 622 c232 342 423 622
426 622 3 0 65 -88 138 -195z m2501 -231 c-131 -140 -1652 -1693 -1658 -1693
-3 1 -30 33 -58 72 -44 59 -53 79 -53 112 0 23 13 187 29 366 l29 324 -91 133
c-50 73 -88 135 -86 137 6 6 1923 615 1938 615 7 1 -15 -29 -50 -66z m-2144
-296 c98 -146 142 -219 133 -222 -44 -17 -414 -132 -416 -130 -3 3 95 546 105
579 7 26 8 25 178 -227z m273 -402 c45 -69 79 -125 75 -125 -28 2 -455 159
-443 164 46 18 257 84 270 85 9 0 51 -53 98 -124z m-391 -32 c151 -53 152 -59
6 -62 l-71 -1 -33 43 c-51 66 -52 67 -45 67 4 0 68 -21 143 -47z m483 -131 c0
-39 -51 -586 -55 -590 -3 -3 -146 185 -398 528 l-48 65 103 6 c57 3 169 6 251
7 135 2 147 1 147 -16z m-321 -350 l262 -353 -12 -130 -12 -129 -36 22 c-247
153 -1417 901 -1419 908 -2 6 37 10 95 11 54 1 260 7 458 14 198 7 370 12 382
11 16 -1 86 -89 282 -354z"/>
</g>
</svg>
